<svg width="165" height="50" viewBox="0 0 165 50" fill="none" xmlns="http://www.w3.org/2000/svg">
<path d="M29.0222 34.3356L15 26.3915V34.1563L22.1717 38.209L29.0222 34.3356Z" fill="#161616"/>
<path d="M36.7545 25.6562L29.904 29.5296L43.9262 37.4737V29.7089L36.7545 25.6562Z" fill="#161616"/>
<path d="M36.8539 21.7648L15 34.1563V26.3915L36.8539 14V21.7648Z" fill="url(#paint0_linear_11357_285)"/>
<path d="M43.9338 37.4737L22.0799 49.8651V42.1003L43.9338 29.7089V37.4737Z" fill="url(#paint1_linear_11357_285)"/>
<path d="M56.8817 40.2532C55.8449 40.2532 54.8443 40.1277 53.8798 39.8766C52.9274 39.6136 52.1498 39.2789 51.5471 38.8724L52.7225 36.2542C53.2891 36.6129 53.9401 36.9118 54.6755 37.1509C55.423 37.378 56.1644 37.4916 56.8998 37.4916C57.3941 37.4916 57.7919 37.4497 58.0933 37.3661C58.3947 37.2704 58.6117 37.1509 58.7444 37.0074C58.889 36.852 58.9614 36.6727 58.9614 36.4694C58.9614 36.1825 58.8287 35.9554 58.5635 35.788C58.2983 35.6206 57.9547 35.4831 57.5327 35.3755C57.1108 35.2679 56.6406 35.1604 56.1222 35.0528C55.6159 34.9452 55.1035 34.8077 54.5851 34.6403C54.0788 34.4729 53.6146 34.2577 53.1927 33.9947C52.7707 33.7198 52.4271 33.3671 52.1619 32.9367C51.8967 32.4944 51.7641 31.9385 51.7641 31.269C51.7641 30.5158 51.969 29.8344 52.3789 29.2247C52.8009 28.615 53.4278 28.1248 54.2596 27.7542C55.0915 27.3836 56.1282 27.1983 57.37 27.1983C58.2018 27.1983 59.0156 27.2939 59.8113 27.4852C60.619 27.6645 61.3363 27.9335 61.9632 28.2922L60.8601 30.9283C60.2573 30.6055 59.6606 30.3664 59.0699 30.211C58.4791 30.0436 57.9065 29.9599 57.3519 29.9599C56.8576 29.9599 56.4598 30.0137 56.1584 30.1213C55.857 30.2169 55.64 30.3485 55.5074 30.5158C55.3748 30.6832 55.3085 30.8745 55.3085 31.0897C55.3085 31.3646 55.435 31.5858 55.6882 31.7532C55.9534 31.9086 56.297 32.0401 56.719 32.1477C57.153 32.2433 57.6232 32.3449 58.1295 32.4525C58.6479 32.5601 59.1603 32.6976 59.6666 32.865C60.185 33.0204 60.6552 33.2356 61.0771 33.5106C61.4991 33.7736 61.8367 34.1262 62.0898 34.5686C62.3551 34.999 62.4877 35.5429 62.4877 36.2004C62.4877 36.9297 62.2767 37.6052 61.8547 38.2268C61.4448 38.8365 60.824 39.3267 59.9921 39.6973C59.1723 40.0679 58.1355 40.2532 56.8817 40.2532Z" fill="#161616"/>
<path d="M67.8913 40.0021V34.6941L68.7231 36.8281L63.063 27.4494H66.8424L70.9293 34.2458H68.7412L72.8462 27.4494H76.3183L70.6762 36.8281L71.4718 34.6941V40.0021H67.8913Z" fill="#161616"/>
<path d="M77.9897 40.0021V27.4494H80.9374L87.9177 35.8059H86.5252V27.4494H90.0334V40.0021H87.0858L80.1055 31.6456H81.498V40.0021H77.9897Z" fill="#161616"/>
<path d="M96.0673 40.0021V30.2648H92.1793V27.4494H103.518V30.2648H99.6479V40.0021H96.0673Z" fill="#161616"/>
<path d="M114.129 27.4494H117.709V40.0021H114.129V27.4494ZM109.246 40.0021H105.665V27.4494H109.246V40.0021ZM114.382 35.1066H108.993V32.1656H114.382V35.1066Z" fill="#161616"/>
<path d="M124.34 32.3091H130.217V34.9631H124.34V32.3091ZM124.593 37.2585H131.212V40.0021H121.049V27.4494H130.977V30.193H124.593V37.2585Z" fill="#161616"/>
<path d="M136.707 40.0021V30.2648H132.819V27.4494H144.157V30.2648H140.287V40.0021H136.707Z" fill="#161616"/>
<path d="M146.305 40.0021V27.4494H149.886V40.0021H146.305Z" fill="#161616"/>
<path d="M159.558 40.2532C158.557 40.2532 157.629 40.0978 156.773 39.7869C155.929 39.4642 155.194 39.0099 154.567 38.4241C153.952 37.8383 153.47 37.1509 153.12 36.3618C152.77 35.5608 152.596 34.6822 152.596 33.7257C152.596 32.7693 152.77 31.8966 153.12 31.1076C153.47 30.3066 153.952 29.6132 154.567 29.0274C155.194 28.4416 155.929 27.9933 156.773 27.6825C157.629 27.3597 158.557 27.1983 159.558 27.1983C160.727 27.1983 161.77 27.4015 162.686 27.808C163.615 28.2145 164.386 28.8003 165.001 29.5654L162.723 31.6097C162.313 31.1315 161.861 30.7669 161.366 30.5158C160.884 30.2648 160.341 30.1392 159.739 30.1392C159.22 30.1392 158.744 30.2229 158.31 30.3903C157.876 30.5577 157.502 30.8027 157.189 31.1255C156.888 31.4364 156.646 31.8129 156.466 32.2553C156.297 32.6976 156.212 33.1878 156.212 33.7257C156.212 34.2637 156.297 34.7539 156.466 35.1962C156.646 35.6386 156.888 36.0211 157.189 36.3439C157.502 36.6547 157.876 36.8938 158.31 37.0612C158.744 37.2286 159.22 37.3123 159.739 37.3123C160.341 37.3123 160.884 37.1867 161.366 36.9357C161.861 36.6846 162.313 36.32 162.723 35.8418L165.001 37.8861C164.386 38.6393 163.615 39.2251 162.686 39.6435C161.77 40.05 160.727 40.2532 159.558 40.2532Z" fill="#161616"/>
<path d="M19.2998 1.39291C19.6648 1.26545 20.0285 1.13455 20.3922 1.00357C20.6267 0.921636 20.8612 0.839911 21.0959 0.758416C21.4114 0.647202 21.4114 0.647202 21.7334 0.533741C22.6265 0.32298 23.3644 0.439335 24.1841 0.845901C24.3077 0.906632 24.4314 0.967364 24.5587 1.02993C24.687 1.09546 24.8152 1.16099 24.9473 1.2285C25.0825 1.29647 25.2177 1.36444 25.3569 1.43448C26.4847 2.00979 27.5522 2.6561 28.6138 3.3472C28.844 3.48943 29.0744 3.63112 29.3052 3.77238C32.6596 5.83637 34.1574 8.30027 35.8152 11.8235C36.0377 12.3117 36.0377 12.3117 36.382 12.7349C36.4808 12.9862 36.5717 13.2408 36.6559 13.4973C36.6999 13.6299 36.7439 13.7625 36.7893 13.8991C36.8383 14.0507 36.8383 14.0507 36.8884 14.2055C36.2888 13.9215 35.7357 13.581 35.1736 13.2288C35.0721 13.1778 34.9706 13.1268 34.866 13.0742C34.5088 13.1558 34.5088 13.1558 34.3624 13.5217C34.3166 13.628 34.2709 13.7342 34.2237 13.8436C34.1212 13.7903 34.0187 13.7371 33.913 13.6822C32.882 13.1939 31.9041 12.9299 30.7838 12.7778C30.5998 12.7521 30.5998 12.7521 30.4122 12.7258C28.7037 12.5191 27.2375 12.6776 25.6182 13.2542C25.3738 13.3401 25.3738 13.3401 25.1244 13.4276C23.3898 14.0661 22.1215 14.9558 20.9532 16.4026C20.8461 16.4395 20.7391 16.4763 20.6288 16.5143C20.501 16.3171 20.3732 16.1198 20.2415 15.9166C20.1002 16.0821 19.9589 16.2476 19.8133 16.4182C19.281 17.0415 18.7913 17.3459 18.0227 17.6382C16.8566 18.0852 15.9483 18.5292 15.1271 19.5053C14.9957 19.6561 14.8642 19.8069 14.7288 19.9623C14.6483 20.0654 14.5678 20.1685 14.4849 20.2747C14.1236 18.4037 14.5132 16.4863 14.9057 14.6469C13.9952 15.087 13.0848 15.5272 12.1745 15.9676C11.8652 16.1173 11.5558 16.2669 11.2463 16.4165C10.8004 16.632 10.3545 16.8478 9.9086 17.0636C9.77131 17.1299 9.63402 17.1962 9.49257 17.2645C8.75508 17.6216 8.02254 17.986 7.29538 18.3639C7.14048 18.2401 6.98558 18.1162 6.82599 17.9886C6.36309 17.5831 6.36309 17.5831 5.92835 17.5552C5.89122 17.4474 5.85409 17.3396 5.81583 17.2284C5.94856 17.0923 5.94856 17.0923 6.08397 16.9533C5.72568 16.9561 5.36739 16.9588 4.99824 16.9617C5.35313 16.1147 5.8829 15.4465 6.44059 14.7287C7.20597 13.7322 7.95139 12.7262 8.67412 11.698C9.7841 10.1282 10.9784 8.62932 12.1797 7.12997C12.526 6.6967 12.8702 6.26181 13.2137 5.82631C13.4279 5.55525 13.6422 5.28419 13.8564 5.01314C13.9537 4.88953 14.051 4.76592 14.1512 4.63857C15.6157 2.79261 17.1097 2.1535 19.2998 1.39291Z" fill="#EC3030"/>
<path d="M30.1307 12.6637C30.324 12.6795 30.5172 12.6953 30.7163 12.7116C31.9897 12.8632 33.0998 13.2475 34.2542 13.7634C34.3651 13.547 34.4759 13.3307 34.5902 13.1078C35.8265 13.1206 36.7468 14.0149 37.5973 14.7719C37.6807 14.4759 37.6807 14.4759 37.7659 14.1739C37.8763 14.1359 37.9868 14.0978 38.1006 14.0586C38.3433 14.3197 38.5854 14.5814 38.8272 14.8433C38.9621 14.9889 39.0969 15.1346 39.2359 15.2846C40.1228 16.2925 40.6944 17.5475 40.7224 18.9029C40.6045 19.8994 40.3787 20.5408 39.6459 21.2652C39.1659 21.6238 38.7687 21.7711 38.2016 21.9649C38.0257 22.0259 37.8498 22.087 37.6685 22.1499C37.1904 22.2906 37.1903 22.2906 36.6328 22.3026C36.522 21.9809 36.522 21.9809 36.746 21.5438C35.2065 21.0501 33.4602 21.129 31.8951 21.5944C31.7354 21.638 31.5757 21.6816 31.4111 21.7266C29.6178 22.2741 28.0573 23.186 26.4471 24.1241C26.0906 24.3129 26.0906 24.3129 25.421 24.5435C25.4584 24.293 25.4957 24.0426 25.5342 23.7846C25.4607 23.7505 25.3872 23.7165 25.3114 23.6814C25.0069 23.8347 24.7086 24.0001 24.4132 24.1699C24.2277 24.2751 24.0422 24.3803 23.8511 24.4886C23.5533 24.6576 23.5533 24.6576 23.2494 24.83C18.6669 27.378 18.6669 27.378 16.0563 26.8C15.7161 26.7094 15.3804 26.6044 15.0462 26.4961C15.0458 26.6744 15.0454 26.8527 15.045 27.0364C14.9345 27.0744 14.8241 27.1125 14.7102 27.1517C14.0958 26.472 13.6588 25.7655 13.5445 24.8536C13.6634 24.2788 13.8595 23.7579 14.1056 23.2206C13.8294 23.3157 13.5532 23.4108 13.2687 23.5088C13.0796 22.0635 13.8003 20.5877 14.6716 19.4264C15.4849 18.577 16.4119 18.2387 17.4987 17.82C18.4414 17.4437 19.0898 16.9825 19.7524 16.2372C19.8445 16.1461 19.9367 16.0549 20.0317 15.961C20.1231 16.2265 20.2146 16.492 20.3087 16.7655C20.4357 16.635 20.5626 16.5046 20.6934 16.3701C20.8655 16.196 21.0376 16.0219 21.2098 15.8478C21.2928 15.7622 21.3758 15.6766 21.4613 15.5883C23.641 13.3977 27.101 12.4093 30.1307 12.6637Z" fill="#ECECEC"/>
<path d="M35.5304 13.0305C36.3301 13.3747 36.8657 13.8402 37.4979 14.4326C37.5498 14.2276 37.6017 14.0226 37.6552 13.8113C37.7647 13.7736 37.8742 13.7359 37.987 13.6971C38.2338 13.9741 38.4801 14.2517 38.726 14.5296C38.8632 14.6842 39.0004 14.8387 39.1418 14.9979C40.0448 16.0665 40.6379 17.3874 40.6905 18.8032C40.5911 19.8416 40.3775 20.5072 39.6598 21.2502C39.1876 21.6159 38.7941 21.7625 38.232 21.9545C38.0576 22.015 37.8832 22.0756 37.7036 22.1379C37.2292 22.2762 37.2292 22.2762 36.6732 22.2785C36.5568 21.9405 36.5568 21.9405 36.7723 21.4882C35.2277 20.9447 33.4872 20.9951 31.9346 21.4525C31.7761 21.4952 31.6176 21.5378 31.4542 21.5818C29.6754 22.1207 28.1354 23.0445 26.5465 23.9946C26.1943 24.1853 26.1943 24.1853 25.5306 24.4138C25.5633 24.153 25.596 23.8922 25.6296 23.6235C25.5187 23.5681 25.5187 23.5681 25.4055 23.5116C25.1536 23.6354 24.9078 23.772 24.6652 23.9135C24.4407 24.0429 24.4407 24.0429 24.2115 24.1749C24.0542 24.2668 23.8968 24.3586 23.7346 24.4532C23.4264 24.6328 23.1178 24.8117 22.8088 24.9899C22.6714 25.0701 22.534 25.1503 22.3924 25.2329C21.9891 25.444 21.592 25.5938 21.1585 25.7302C21.5763 25.2682 22.0244 24.9197 22.5305 24.5607C23.382 23.9435 24.1854 23.2835 24.9885 22.6036C26.1061 21.6619 27.2433 20.876 28.5234 20.1695C28.5618 20.281 28.6002 20.3926 28.6397 20.5075C28.4025 20.8964 28.4025 20.8964 28.1506 21.2431C28.3079 21.1592 28.4651 21.0753 28.6272 20.9889C30.3963 20.1004 31.9491 19.6941 33.9149 19.6753C35.3398 19.6526 36.4994 19.3769 37.5586 18.3818C37.6738 18.7164 37.789 19.051 37.9077 19.3958C38.3729 18.7341 38.646 18.2999 38.5454 17.4748C38.0806 15.977 37.0718 14.8538 35.9512 13.7999C35.705 13.5376 35.705 13.5376 35.5304 13.0305Z" fill="#DDDCDC"/>
<path d="M1.27927 17.452C2.27367 17.0397 3.00089 16.8896 4.0717 17.0434C4.06962 16.8617 4.06754 16.6799 4.06539 16.4927C4.17356 16.4554 4.28172 16.4182 4.39317 16.3798C4.54086 16.6331 4.68856 16.8863 4.84072 17.1472C5.08449 17.0975 5.08449 17.0975 5.33318 17.0468C5.88079 16.9734 5.88079 16.9734 6.32204 17.1901C6.10571 17.2645 5.88937 17.339 5.66648 17.4158C5.70393 17.5245 5.74137 17.6333 5.77995 17.7453C5.95488 17.7592 5.95488 17.7592 6.13334 17.7734C6.54897 17.8491 6.54897 17.8491 7.04695 18.2305C7.2321 18.6643 7.2321 18.6643 7.39011 19.1606C7.44353 19.3254 7.49696 19.4901 7.55201 19.6599C7.59128 19.7863 7.63055 19.9127 7.67102 20.043C7.56285 20.0802 7.45468 20.1175 7.34324 20.1558C7.20595 20.0206 7.20595 20.0206 7.06588 19.8827C7.07849 20.0951 7.09111 20.3074 7.1041 20.5261C7.08369 21.4923 6.67231 22.2076 6.11409 22.975C5.8988 23.1403 5.8988 23.1403 5.67916 23.309C5.46367 23.1608 5.46367 23.1608 5.24382 23.0097C4.75849 22.6634 4.75849 22.6634 4.19153 22.7154C3.9752 22.7899 3.75887 22.8644 3.53598 22.9412C3.3342 22.7066 3.13242 22.4719 2.92453 22.2302C2.72692 22.3591 2.52931 22.4879 2.32571 22.6207C2.03032 22.1142 1.73493 21.6077 1.4306 21.0859C1.23299 21.2148 1.03537 21.3436 0.831773 21.4764C0.433024 20.662 0.502009 20.1025 0.719589 19.2581C0.893127 18.79 1.18124 18.4833 1.5062 18.1111C1.43132 17.8936 1.35643 17.6761 1.27927 17.452Z" fill="#ECEBEB"/>
<path d="M17.0632 9.53355C17.3552 9.81206 17.3552 9.81206 17.3614 10.1384C17.3476 10.274 17.3337 10.4095 17.3195 10.5492C17.3052 10.7009 17.291 10.8525 17.2763 11.0088C17.2599 11.1719 17.2435 11.3349 17.2265 11.5029C17.0595 13.3445 16.919 15.2062 17.1431 17.0407C17.1175 17.6647 17.1175 17.6647 16.7555 18.0996C16.594 18.2209 16.4325 18.3422 16.2662 18.4672C15.5525 19.0315 15.0037 19.5399 14.4868 20.2763C14.1232 18.3322 14.5684 16.3297 15.0156 14.4083C14.8379 14.4924 14.6602 14.5766 14.4772 14.6633C13.8138 14.9772 13.1501 15.2903 12.4862 15.6032C12.1996 15.7383 11.9132 15.8737 11.6269 16.0093C11.2139 16.205 10.8004 16.3997 10.3869 16.5944C10.2603 16.6546 10.1337 16.7147 10.0032 16.7767C9.25034 17.1299 8.50165 17.425 7.71018 17.6819C7.67168 17.57 7.63317 17.4582 7.5935 17.343C9.15503 16.4034 10.7206 15.4891 12.3423 14.6536C12.7287 14.4512 13.1148 14.2481 13.5005 14.0445C13.8119 13.8815 14.1255 13.7226 14.4393 13.5643C15.8325 12.792 16.282 11.8448 16.7706 10.3924C16.8552 10.146 16.8552 10.146 16.9416 9.89452C17.0018 9.71584 17.0018 9.71584 17.0632 9.53355Z" fill="#DC2C23"/>
<path d="M6.06954 17.4255C6.45903 17.5516 6.45903 17.5516 6.93244 17.9213C7.21337 18.5559 7.41373 19.2038 7.60373 19.8709C7.50163 19.9061 7.39953 19.9412 7.29433 19.9774C7.203 19.8781 7.11167 19.7787 7.01758 19.6762C7.03827 19.9022 7.05896 20.1281 7.08028 20.3609C7.09991 21.3858 6.73486 22.1287 6.23127 22.9207C6.09826 23.0319 5.96524 23.1431 5.8282 23.2577C5.61577 23.0917 5.61577 23.0917 5.39905 22.9223C4.92011 22.5349 4.92011 22.5349 4.37914 22.5672C4.17493 22.6375 3.97073 22.7078 3.76034 22.7803C3.55754 22.523 3.35475 22.2657 3.14581 22.0006C3.01279 22.1119 2.87978 22.2231 2.74273 22.3377C2.67295 21.9692 2.60317 21.6007 2.53127 21.221C2.63338 21.1858 2.73548 21.1507 2.84067 21.1145C2.97222 21.1959 3.10377 21.2774 3.23931 21.3613C3.77776 21.6501 3.98209 21.5836 4.53811 21.5212C4.87935 21.6613 5.21897 21.808 5.55571 21.9638C5.65781 21.9287 5.75992 21.8935 5.86511 21.8573C6.10935 20.6233 5.96794 19.615 5.69484 18.3475C5.91918 18.3357 6.14353 18.3238 6.37467 18.3116C6.27397 18.0192 6.17328 17.7268 6.06954 17.4255Z" fill="#DCDBDA"/>
<defs>
<linearGradient id="paint0_linear_11357_285" x1="38.4079" y1="24.9461" x2="10.0822" y2="37.0517" gradientUnits="userSpaceOnUse">
<stop stop-color="#242424"/>
<stop offset="1" stop-color="#707171"/>
</linearGradient>
<linearGradient id="paint1_linear_11357_285" x1="22.0881" y1="39.791" x2="43.9363" y2="39.791" gradientUnits="userSpaceOnUse">
<stop stop-color="#242424"/>
<stop offset="1" stop-color="#737374"/>
</linearGradient>
</defs>
</svg>
